<svg width="15" height="20" viewBox="0 0 15 20" fill="none" xmlns="http://www.w3.org/2000/svg">
<path d="M2.04547 2C2.04547 0.895433 2.9409 0 4.04547 0H13C14.1046 0 15 0.895431 15 2V17.7727C15 18.8773 14.1046 19.7727 13 19.7727H4.04547C2.9409 19.7727 2.04547 18.8773 2.04547 17.7727V2Z" fill="#DD3C3C"/>
<path d="M6.8374 9.00293H7.11328C7.29069 9.00293 7.42741 8.9484 7.52344 8.83936C7.61947 8.73031 7.66748 8.58138 7.66748 8.39258C7.66748 7.97591 7.50635 7.76758 7.18408 7.76758C7.02946 7.76758 6.9082 7.82373 6.82031 7.93604C6.73242 8.04834 6.68848 8.19564 6.68848 8.37793H6.25879C6.25879 8.0931 6.34505 7.85872 6.51758 7.6748C6.69173 7.48926 6.9139 7.39648 7.18408 7.39648C7.46403 7.39648 7.6862 7.48438 7.85059 7.66016C8.01497 7.83431 8.09717 8.08171 8.09717 8.40234C8.09717 8.56673 8.05404 8.72054 7.96777 8.86377C7.88314 9.00537 7.77246 9.10954 7.63574 9.17627C7.97103 9.29997 8.13867 9.57747 8.13867 10.0088C8.13867 10.3262 8.04997 10.5793 7.87256 10.7681C7.69678 10.9552 7.46647 11.0488 7.18164 11.0488C6.90007 11.0488 6.6722 10.9601 6.49805 10.7827C6.32552 10.6037 6.23926 10.3636 6.23926 10.0625H6.67139C6.67139 10.2513 6.71696 10.4019 6.80811 10.5142C6.89925 10.6248 7.02376 10.6802 7.18164 10.6802C7.34277 10.6802 7.47054 10.6257 7.56494 10.5166C7.66097 10.4076 7.70898 10.2415 7.70898 10.0186C7.70898 9.58724 7.50472 9.37158 7.09619 9.37158H6.8374V9.00293ZM10.043 11H9.6084V7.98975L8.86133 8.32422V7.91406L9.97461 7.42822H10.043V11Z" fill="white"/>
<path d="M3.15909 1.02273C3.15909 1.18283 3.04962 1.37049 2.78122 1.53153C2.51779 1.68959 2.13772 1.79545 1.70455 1.79545C1.27137 1.79545 0.891304 1.68959 0.627874 1.53153C0.359467 1.37049 0.25 1.18283 0.25 1.02273C0.25 0.862624 0.359467 0.674967 0.627874 0.513923C0.891304 0.355865 1.27137 0.25 1.70455 0.25C2.13772 0.25 2.51779 0.355865 2.78122 0.513923C3.04962 0.674967 3.15909 0.862624 3.15909 1.02273Z" stroke="#DD3C3C" stroke-width="0.5"/>
<path d="M3.15909 2.38637C3.15909 2.54648 3.04962 2.73413 2.78122 2.89518C2.51779 3.05324 2.13772 3.1591 1.70455 3.1591C1.27137 3.1591 0.891304 3.05324 0.627874 2.89518C0.359467 2.73413 0.25 2.54648 0.25 2.38637C0.25 2.22627 0.359467 2.03861 0.627874 1.87757C0.891304 1.71951 1.27137 1.61365 1.70455 1.61365C2.13772 1.61365 2.51779 1.71951 2.78122 1.87757C3.04962 2.03861 3.15909 2.22627 3.15909 2.38637Z" stroke="#DD3C3C" stroke-width="0.5"/>
<path d="M3.15909 3.75002C3.15909 3.91013 3.04962 4.09778 2.78122 4.25883C2.51779 4.41688 2.13772 4.52275 1.70455 4.52275C1.27137 4.52275 0.891304 4.41688 0.627874 4.25883C0.359467 4.09778 0.25 3.91013 0.25 3.75002C0.25 3.58992 0.359467 3.40226 0.627874 3.24122C0.891304 3.08316 1.27137 2.97729 1.70455 2.97729C2.13772 2.97729 2.51779 3.08316 2.78122 3.24122C3.04962 3.40226 3.15909 3.58992 3.15909 3.75002Z" stroke="#DD3C3C" stroke-width="0.5"/>
<path d="M3.15909 5.11361C3.15909 5.27371 3.04962 5.46137 2.78122 5.62241C2.51779 5.78047 2.13772 5.88634 1.70455 5.88634C1.27137 5.88634 0.891304 5.78047 0.627874 5.62241C0.359467 5.46137 0.25 5.27371 0.25 5.11361C0.25 4.95351 0.359467 4.76585 0.627874 4.6048C0.891304 4.44675 1.27137 4.34088 1.70455 4.34088C2.13772 4.34088 2.51779 4.44675 2.78122 4.6048C3.04962 4.76585 3.15909 4.95351 3.15909 5.11361Z" stroke="#DD3C3C" stroke-width="0.5"/>
<path d="M3.15909 6.47726C3.15909 6.63736 3.04962 6.82502 2.78122 6.98606C2.51779 7.14412 2.13772 7.24998 1.70455 7.24998C1.27137 7.24998 0.891304 7.14412 0.627874 6.98606C0.359467 6.82502 0.25 6.63736 0.25 6.47726C0.25 6.31715 0.359467 6.1295 0.627874 5.96845C0.891304 5.81039 1.27137 5.70453 1.70455 5.70453C2.13772 5.70453 2.51779 5.81039 2.78122 5.96845C3.04962 6.1295 3.15909 6.31715 3.15909 6.47726Z" stroke="#DD3C3C" stroke-width="0.5"/>
<path d="M3.15909 7.8409C3.15909 8.00101 3.04962 8.18866 2.78122 8.34971C2.51779 8.50777 2.13772 8.61363 1.70455 8.61363C1.27137 8.61363 0.891304 8.50777 0.627874 8.34971C0.359467 8.18866 0.25 8.00101 0.25 7.8409C0.25 7.6808 0.359467 7.49314 0.627874 7.3321C0.891304 7.17404 1.27137 7.06818 1.70455 7.06818C2.13772 7.06818 2.51779 7.17404 2.78122 7.3321C3.04962 7.49314 3.15909 7.6808 3.15909 7.8409Z" stroke="#DD3C3C" stroke-width="0.5"/>
<path d="M3.15909 9.20455C3.15909 9.36465 3.04962 9.55231 2.78122 9.71336C2.51779 9.87141 2.13772 9.97728 1.70455 9.97728C1.27137 9.97728 0.891304 9.87141 0.627874 9.71336C0.359467 9.55231 0.25 9.36465 0.25 9.20455C0.25 9.04445 0.359467 8.85679 0.627874 8.69575C0.891304 8.53769 1.27137 8.43182 1.70455 8.43182C2.13772 8.43182 2.51779 8.53769 2.78122 8.69575C3.04962 8.85679 3.15909 9.04445 3.15909 9.20455Z" stroke="#DD3C3C" stroke-width="0.5"/>
<path d="M3.15909 10.5682C3.15909 10.7283 3.04962 10.916 2.78122 11.077C2.51779 11.2351 2.13772 11.3409 1.70455 11.3409C1.27137 11.3409 0.891304 11.2351 0.627874 11.077C0.359467 10.916 0.25 10.7283 0.25 10.5682C0.25 10.4081 0.359467 10.2204 0.627874 10.0594C0.891304 9.90134 1.27137 9.79547 1.70455 9.79547C2.13772 9.79547 2.51779 9.90134 2.78122 10.0594C3.04962 10.2204 3.15909 10.4081 3.15909 10.5682Z" stroke="#DD3C3C" stroke-width="0.5"/>
<path d="M3.15909 11.9318C3.15909 12.0919 3.04962 12.2796 2.78122 12.4406C2.51779 12.5987 2.13772 12.7046 1.70455 12.7046C1.27137 12.7046 0.891304 12.5987 0.627874 12.4406C0.359467 12.2796 0.25 12.0919 0.25 11.9318C0.25 11.7717 0.359467 11.5841 0.627874 11.423C0.891304 11.265 1.27137 11.1591 1.70455 11.1591C2.13772 11.1591 2.51779 11.265 2.78122 11.423C3.04962 11.5841 3.15909 11.7717 3.15909 11.9318Z" stroke="#DD3C3C" stroke-width="0.5"/>
<path d="M3.15909 13.2954C3.15909 13.4555 3.04962 13.6432 2.78122 13.8042C2.51779 13.9623 2.13772 14.0682 1.70455 14.0682C1.27137 14.0682 0.891304 13.9623 0.627874 13.8042C0.359467 13.6432 0.25 13.4555 0.25 13.2954C0.25 13.1353 0.359467 12.9477 0.627874 12.7866C0.891304 12.6286 1.27137 12.5227 1.70455 12.5227C2.13772 12.5227 2.51779 12.6286 2.78122 12.7866C3.04962 12.9477 3.15909 13.1353 3.15909 13.2954Z" stroke="#DD3C3C" stroke-width="0.5"/>
<path d="M3.15909 14.6591C3.15909 14.8192 3.04962 15.0068 2.78122 15.1679C2.51779 15.3259 2.13772 15.4318 1.70455 15.4318C1.27137 15.4318 0.891304 15.3259 0.627874 15.1679C0.359467 15.0068 0.25 14.8192 0.25 14.6591C0.25 14.499 0.359467 14.3113 0.627874 14.1503C0.891304 13.9922 1.27137 13.8864 1.70455 13.8864C2.13772 13.8864 2.51779 13.9922 2.78122 14.1503C3.04962 14.3113 3.15909 14.499 3.15909 14.6591Z" stroke="#DD3C3C" stroke-width="0.5"/>
<path d="M3.15909 16.0227C3.15909 16.1828 3.04962 16.3705 2.78122 16.5315C2.51779 16.6896 2.13772 16.7955 1.70455 16.7955C1.27137 16.7955 0.891304 16.6896 0.627874 16.5315C0.359467 16.3705 0.25 16.1828 0.25 16.0227C0.25 15.8626 0.359467 15.675 0.627874 15.5139C0.891304 15.3559 1.27137 15.25 1.70455 15.25C2.13772 15.25 2.51779 15.3559 2.78122 15.5139C3.04962 15.675 3.15909 15.8626 3.15909 16.0227Z" stroke="#DD3C3C" stroke-width="0.5"/>
<path d="M3.15909 17.3864C3.15909 17.5465 3.04962 17.7341 2.78122 17.8952C2.51779 18.0532 2.13772 18.1591 1.70455 18.1591C1.27137 18.1591 0.891304 18.0532 0.627874 17.8952C0.359467 17.7341 0.25 17.5465 0.25 17.3864C0.25 17.2263 0.359467 17.0386 0.627874 16.8776C0.891304 16.7195 1.27137 16.6136 1.70455 16.6136C2.13772 16.6136 2.51779 16.7195 2.78122 16.8776C3.04962 17.0386 3.15909 17.2263 3.15909 17.3864Z" stroke="#DD3C3C" stroke-width="0.5"/>
<path d="M3.15909 18.75C3.15909 18.9101 3.04962 19.0978 2.78122 19.2588C2.51779 19.4169 2.13772 19.5227 1.70455 19.5227C1.27137 19.5227 0.891304 19.4169 0.627874 19.2588C0.359467 19.0978 0.25 18.9101 0.25 18.75C0.25 18.5899 0.359467 18.4023 0.627874 18.2412C0.891304 18.0832 1.27137 17.9773 1.70455 17.9773C2.13772 17.9773 2.51779 18.0832 2.78122 18.2412C3.04962 18.4023 3.15909 18.5899 3.15909 18.75Z" stroke="#DD3C3C" stroke-width="0.5"/>
</svg>
