<svg width="219" height="45" viewBox="0 0 219 45" fill="none" xmlns="http://www.w3.org/2000/svg">
<path d="M8.40295 0C-2.34013 0 0.282193 10.2355 0.282193 10.2355C1.72025 16.2414 4.25798 19.4558 4.25798 19.4558C6.54194 25.8001 4.25798 40.0113 4.25798 40.0113C3.8066 43.4795 6.11898 44.6638 6.11898 44.6638C6.11898 44.6638 9.16427 46.8632 11.6174 40.0113C12.7683 36.7969 13.45 31.8906 13.9014 28.2532C14.6343 22.7549 16.9182 23.2624 16.9182 23.2624C16.9182 23.2624 19.2868 23.0086 20.1611 28.2532C20.7248 31.2139 21.7399 37.5582 22.4451 40.0113C24.8982 46.8632 27.9435 44.6638 27.9435 44.6638C27.9435 44.6638 30.1991 43.3104 29.8045 40.0113C29.8045 40.0113 27.5206 25.8001 29.8045 19.4558C29.8045 19.4558 32.3423 16.2414 33.7803 10.2355C33.7803 10.2355 36.4026 0 25.6596 0C25.6596 0 19.2209 0.111398 14.4833 1.19515C11.8772 0.0400646 8.40295 0 8.40295 0Z" fill="#DD2020"/>
<path d="M1.91431 5.23075C2.22681 2.73075 4.4143 1.48075 7.69555 1.637L7.81248 2.03126C4.84373 2.50001 3.74999 3.59376 3.90624 5.15626C3.90624 5.15626 3.82957 5.66334 3.59374 5.78125C3.28124 5.9375 2.96874 5.9375 2.96874 5.9375C2.96874 5.9375 2.49999 5.93751 2.18749 5.78125C1.87499 5.62499 1.91431 5.46875 1.91431 5.23075Z" fill="white"/>
<path fill-rule="evenodd" clip-rule="evenodd" d="M23.5605 5.37245C25.1653 7.34118 24.9883 10.182 23.2304 11.9485L24.1522 13.0793C24.5057 13.022 24.8788 13.1493 25.1208 13.4462L28.2266 17.2562C28.5877 17.6991 28.5203 18.3519 28.076 18.714C27.6317 19.0762 26.9788 19.0107 26.6177 18.5677L23.5119 14.7578C23.2699 14.4609 23.2204 14.0698 23.3478 13.7351L22.426 12.6043C20.3413 13.9701 17.5232 13.5709 15.9183 11.6022C14.203 9.49804 14.5233 6.39769 16.6336 4.67739C18.7439 2.95709 21.8452 3.26828 23.5605 5.37245ZM22.0058 11.2676C23.5457 10.0122 23.7794 7.74979 22.5277 6.21431C21.276 4.67883 19.013 4.45175 17.473 5.70711C15.933 6.96246 15.6993 9.22488 16.951 10.7604C18.2027 12.2958 20.4658 12.5229 22.0058 11.2676Z" fill="white"/>
<path d="M16.8915 8.75001C16.7352 7.34376 17.7248 5.98959 18.454 5.62501C17.329 8.50001 18.4019 9.94792 19.3915 10.3125L18.9227 11.25C17.3602 11.0938 16.9605 9.37119 16.8915 8.75001Z" fill="white"/>
<path d="M51.3799 18V5.20312H54.4297C55.9238 5.20312 57.084 5.67187 57.9102 6.60938C58.7363 7.54102 59.1494 8.85352 59.1494 10.5469V12.6914C59.1494 14.3848 58.7305 15.6943 57.8926 16.6201C57.0547 17.54 55.8389 18 54.2451 18H51.3799ZM52.9883 6.5918V16.6201H54.2803C55.4111 16.6201 56.2373 16.2979 56.7588 15.6533C57.2803 15.0029 57.5469 14.042 57.5586 12.7705V10.5029C57.5586 9.15527 57.2979 8.16797 56.7764 7.54102C56.2607 6.9082 55.4785 6.5918 54.4297 6.5918H52.9883ZM67.1721 9.94922C66.9553 9.9082 66.7209 9.8877 66.4689 9.8877C65.6721 9.8877 65.1154 10.3242 64.799 11.1973V18H63.2434V8.49023H64.7551L64.7814 9.45703C65.1975 8.69531 65.7863 8.31445 66.548 8.31445C66.7941 8.31445 66.9992 8.35547 67.1633 8.4375L67.1721 9.94922ZM75.0717 18C74.9779 17.7949 74.9105 17.4492 74.8695 16.9629C74.3188 17.7715 73.6156 18.1758 72.7602 18.1758C71.8988 18.1758 71.225 17.9355 70.7387 17.4551C70.2582 16.9688 70.018 16.2861 70.018 15.4072C70.018 14.4404 70.3461 13.6729 71.0023 13.1045C71.6586 12.5361 72.558 12.2461 73.7006 12.2344H74.8432V11.2236C74.8432 10.6553 74.7172 10.251 74.4652 10.0107C74.2133 9.77051 73.8295 9.65039 73.3139 9.65039C72.8451 9.65039 72.4643 9.79102 72.1713 10.0723C71.8783 10.3477 71.7318 10.6992 71.7318 11.127H70.1762C70.1762 10.6406 70.3197 10.1777 70.6068 9.73828C70.8939 9.29297 71.2807 8.94434 71.767 8.69238C72.2533 8.44043 72.7953 8.31445 73.393 8.31445C74.3656 8.31445 75.1039 8.55762 75.6078 9.04395C76.1176 9.52441 76.3783 10.2275 76.39 11.1533V15.9521C76.3959 16.6846 76.4955 17.3203 76.6889 17.8594V18H75.0717ZM72.9975 16.7607C73.3783 16.7607 73.7416 16.6553 74.0873 16.4443C74.433 16.2334 74.685 15.9697 74.8432 15.6533V13.3857H73.9643C73.226 13.3975 72.643 13.5645 72.2152 13.8867C71.7875 14.2031 71.5736 14.6484 71.5736 15.2227C71.5736 15.7617 71.682 16.1543 71.8988 16.4004C72.1156 16.6406 72.4818 16.7607 72.9975 16.7607ZM80.7125 17.1475C80.7125 16.8662 80.7945 16.6318 80.9586 16.4443C81.1285 16.2568 81.3805 16.1631 81.7145 16.1631C82.0484 16.1631 82.3004 16.2568 82.4703 16.4443C82.6461 16.6318 82.734 16.8662 82.734 17.1475C82.734 17.417 82.6461 17.6426 82.4703 17.8242C82.3004 18.0059 82.0484 18.0967 81.7145 18.0967C81.3805 18.0967 81.1285 18.0059 80.9586 17.8242C80.7945 17.6426 80.7125 17.417 80.7125 17.1475ZM95.3779 5.20312L98.7178 15.6445L102.058 5.20312H104.132V18H102.523V13.0166L102.673 8.02441L99.3242 18H98.0938L94.7627 8.05957L94.9121 13.0166V18H93.3037V5.20312H95.3779ZM111.091 15.416L112.822 8.49023H114.475L111.363 19.3447C111.129 20.1592 110.798 20.7773 110.37 21.1992C109.943 21.627 109.456 21.8408 108.911 21.8408C108.7 21.8408 108.431 21.7939 108.103 21.7002V20.3818L108.446 20.417C108.897 20.417 109.248 20.3086 109.5 20.0918C109.758 19.8809 109.966 19.5117 110.124 18.9844L110.432 17.9209L107.637 8.49023H109.333L111.091 15.416ZM119.474 18H117.918V4.5H119.474V18ZM125.405 18H123.849V4.5H125.405V18ZM133.058 18.1758C131.875 18.1758 130.967 17.8242 130.334 17.1211C129.701 16.4121 129.379 15.375 129.367 14.0098V12.8584C129.367 11.4404 129.675 10.3301 130.29 9.52734C130.911 8.71875 131.775 8.31445 132.883 8.31445C133.996 8.31445 134.828 8.66895 135.379 9.37793C135.929 10.0869 136.211 11.1914 136.222 12.6914V13.7109H130.914V13.9307C130.914 14.9502 131.104 15.6914 131.485 16.1543C131.872 16.6172 132.426 16.8486 133.146 16.8486C133.603 16.8486 134.005 16.7637 134.35 16.5938C134.702 16.418 135.03 16.1426 135.335 15.7676L136.143 16.752C135.47 17.7012 134.441 18.1758 133.058 18.1758ZM132.883 9.65039C132.238 9.65039 131.761 9.87305 131.45 10.3184C131.139 10.7578 130.964 11.4434 130.923 12.375H134.667V12.1641C134.626 11.2617 134.462 10.6172 134.175 10.2305C133.893 9.84375 133.463 9.65039 132.883 9.65039ZM141.362 8.49023L141.406 9.51855C142.01 8.71582 142.78 8.31445 143.718 8.31445C145.399 8.31445 146.252 9.43652 146.275 11.6807V18H144.729V11.751C144.729 11.0068 144.603 10.4795 144.351 10.1689C144.104 9.85254 143.732 9.69434 143.234 9.69434C142.848 9.69434 142.499 9.82324 142.188 10.0811C141.884 10.3389 141.638 10.6758 141.45 11.0918V18H139.895V8.49023H141.362ZM155.309 18C155.215 17.7949 155.148 17.4492 155.107 16.9629C154.556 17.7715 153.853 18.1758 152.997 18.1758C152.136 18.1758 151.462 17.9355 150.976 17.4551C150.495 16.9688 150.255 16.2861 150.255 15.4072C150.255 14.4404 150.583 13.6729 151.239 13.1045C151.896 12.5361 152.795 12.2461 153.938 12.2344H155.08V11.2236C155.08 10.6553 154.954 10.251 154.702 10.0107C154.45 9.77051 154.067 9.65039 153.551 9.65039C153.082 9.65039 152.701 9.79102 152.408 10.0723C152.115 10.3477 151.969 10.6992 151.969 11.127H150.413C150.413 10.6406 150.557 10.1777 150.844 9.73828C151.131 9.29297 151.518 8.94434 152.004 8.69238C152.49 8.44043 153.032 8.31445 153.63 8.31445C154.603 8.31445 155.341 8.55762 155.845 9.04395C156.355 9.52441 156.615 10.2275 156.627 11.1533V15.9521C156.633 16.6846 156.733 17.3203 156.926 17.8594V18H155.309ZM153.235 16.7607C153.615 16.7607 153.979 16.6553 154.324 16.4443C154.67 16.2334 154.922 15.9697 155.08 15.6533V13.3857H154.201C153.463 13.3975 152.88 13.5645 152.452 13.8867C152.025 14.2031 151.811 14.6484 151.811 15.2227C151.811 15.7617 151.919 16.1543 152.136 16.4004C152.353 16.6406 152.719 16.7607 153.235 16.7607ZM170.589 10.1074L172.998 5.20312H174.887L171.556 11.5488L174.958 18H173.05L170.589 13.0078L168.12 18H166.213L169.631 11.5488L166.283 5.20312H168.164L170.589 10.1074ZM183.385 18C183.291 17.7949 183.223 17.4492 183.182 16.9629C182.632 17.7715 181.929 18.1758 181.073 18.1758C180.212 18.1758 179.538 17.9355 179.052 17.4551C178.571 16.9688 178.331 16.2861 178.331 15.4072C178.331 14.4404 178.659 13.6729 179.315 13.1045C179.971 12.5361 180.871 12.2461 182.013 12.2344H183.156V11.2236C183.156 10.6553 183.03 10.251 182.778 10.0107C182.526 9.77051 182.142 9.65039 181.627 9.65039C181.158 9.65039 180.777 9.79102 180.484 10.0723C180.191 10.3477 180.045 10.6992 180.045 11.127H178.489C178.489 10.6406 178.633 10.1777 178.92 9.73828C179.207 9.29297 179.594 8.94434 180.08 8.69238C180.566 8.44043 181.108 8.31445 181.706 8.31445C182.679 8.31445 183.417 8.55762 183.921 9.04395C184.43 9.52441 184.691 10.2275 184.703 11.1533V15.9521C184.709 16.6846 184.808 17.3203 185.002 17.8594V18H183.385ZM181.31 16.7607C181.691 16.7607 182.054 16.6553 182.4 16.4443C182.746 16.2334 182.998 15.9697 183.156 15.6533V13.3857H182.277C181.539 13.3975 180.956 13.5645 180.528 13.8867C180.1 14.2031 179.887 14.6484 179.887 15.2227C179.887 15.7617 179.995 16.1543 180.212 16.4004C180.429 16.6406 180.795 16.7607 181.31 16.7607ZM191.478 15.6357L193.279 8.49023H194.861L192.04 18H190.88L188.023 8.49023H189.605L191.478 15.6357ZM199.957 18H198.402V8.49023H199.957V18ZM200.08 5.96777C200.08 6.23145 200.007 6.45117 199.861 6.62695C199.714 6.80273 199.491 6.89062 199.193 6.89062C198.9 6.89062 198.68 6.80273 198.533 6.62695C198.387 6.45117 198.314 6.23145 198.314 5.96777C198.314 5.7041 198.387 5.48145 198.533 5.2998C198.68 5.11816 198.9 5.02734 199.193 5.02734C199.486 5.02734 199.705 5.12109 199.852 5.30859C200.004 5.49023 200.08 5.70996 200.08 5.96777ZM207.611 18.1758C206.427 18.1758 205.519 17.8242 204.886 17.1211C204.253 16.4121 203.931 15.375 203.919 14.0098V12.8584C203.919 11.4404 204.227 10.3301 204.842 9.52734C205.463 8.71875 206.328 8.31445 207.435 8.31445C208.548 8.31445 209.38 8.66895 209.931 9.37793C210.482 10.0869 210.763 11.1914 210.775 12.6914V13.7109H205.466V13.9307C205.466 14.9502 205.657 15.6914 206.038 16.1543C206.424 16.6172 206.978 16.8486 207.699 16.8486C208.156 16.8486 208.557 16.7637 208.903 16.5938C209.254 16.418 209.582 16.1426 209.887 15.7676L210.696 16.752C210.022 17.7012 208.994 18.1758 207.611 18.1758ZM207.435 9.65039C206.79 9.65039 206.313 9.87305 206.002 10.3184C205.692 10.7578 205.516 11.4434 205.475 12.375H209.219V12.1641C209.178 11.2617 209.014 10.6172 208.727 10.2305C208.446 9.84375 208.015 9.65039 207.435 9.65039ZM218.376 9.94922C218.159 9.9082 217.924 9.8877 217.672 9.8877C216.876 9.8877 216.319 10.3242 216.003 11.1973V18H214.447V8.49023H215.959L215.985 9.45703C216.401 8.69531 216.99 8.31445 217.752 8.31445C217.998 8.31445 218.203 8.35547 218.367 8.4375L218.376 9.94922Z" fill="#251818"/>
<path d="M58.4766 36.8418C58.3535 37.8945 57.9639 38.708 57.3076 39.2822C56.6559 39.8519 55.7878 40.1367 54.7031 40.1367C53.5273 40.1367 52.584 39.7152 51.873 38.8721C51.1667 38.029 50.8135 36.901 50.8135 35.4883V34.5312C50.8135 33.6061 50.9775 32.7926 51.3057 32.0908C51.6383 31.389 52.1077 30.8512 52.7139 30.4775C53.32 30.0993 54.0218 29.9102 54.8193 29.9102C55.8766 29.9102 56.7243 30.2064 57.3623 30.7988C58.0003 31.3867 58.3717 32.2025 58.4766 33.2461H57.1572C57.0433 32.4531 56.7949 31.8789 56.4121 31.5234C56.0339 31.168 55.5029 30.9902 54.8193 30.9902C53.9808 30.9902 53.3223 31.3001 52.8438 31.9199C52.3698 32.5397 52.1328 33.4215 52.1328 34.5654V35.5293C52.1328 36.6094 52.3584 37.4684 52.8096 38.1064C53.2607 38.7445 53.8919 39.0635 54.7031 39.0635C55.4323 39.0635 55.9906 38.8994 56.3779 38.5713C56.7699 38.2386 57.0296 37.6621 57.1572 36.8418H58.4766ZM61.4502 40H60.1855V32.6035H61.4502V40ZM60.083 30.6416C60.083 30.4365 60.1445 30.2633 60.2676 30.1221C60.3952 29.9808 60.582 29.9102 60.8281 29.9102C61.0742 29.9102 61.2611 29.9808 61.3887 30.1221C61.5163 30.2633 61.5801 30.4365 61.5801 30.6416C61.5801 30.8467 61.5163 31.0176 61.3887 31.1543C61.2611 31.291 61.0742 31.3594 60.8281 31.3594C60.582 31.3594 60.3952 31.291 60.2676 31.1543C60.1445 31.0176 60.083 30.8467 60.083 30.6416ZM67.0557 33.7383C66.8643 33.7064 66.6569 33.6904 66.4336 33.6904C65.6042 33.6904 65.0413 34.0436 64.7451 34.75V40H63.4805V32.6035H64.7109L64.7314 33.458C65.1462 32.7972 65.734 32.4668 66.4951 32.4668C66.7412 32.4668 66.9281 32.4987 67.0557 32.5625V33.7383ZM72.791 39.2686C72.2988 39.8473 71.5765 40.1367 70.624 40.1367C69.8356 40.1367 69.234 39.9089 68.8193 39.4531C68.4092 38.9928 68.2018 38.3138 68.1973 37.416V32.6035H69.4619V37.3818C69.4619 38.5029 69.9176 39.0635 70.8291 39.0635C71.7952 39.0635 72.4378 38.7035 72.7568 37.9834V32.6035H74.0215V40H72.8184L72.791 39.2686ZM79.5244 33.7383C79.333 33.7064 79.1257 33.6904 78.9023 33.6904C78.0729 33.6904 77.5101 34.0436 77.2139 34.75V40H75.9492V32.6035H77.1797L77.2002 33.458C77.6149 32.7972 78.2028 32.4668 78.9639 32.4668C79.21 32.4668 79.3968 32.4987 79.5244 32.5625V33.7383ZM80.2559 36.2402C80.2559 35.0872 80.5225 34.1712 81.0557 33.4922C81.5889 32.8086 82.2952 32.4668 83.1748 32.4668C84.0771 32.4668 84.7812 32.7858 85.2871 33.4238L85.3486 32.6035H86.5039V39.8223C86.5039 40.7793 86.2191 41.5335 85.6494 42.085C85.0843 42.6364 84.3232 42.9121 83.3662 42.9121C82.833 42.9121 82.3112 42.7982 81.8008 42.5703C81.2904 42.3424 80.9007 42.0303 80.6318 41.6338L81.2881 40.875C81.8304 41.5449 82.4935 41.8799 83.2773 41.8799C83.8926 41.8799 84.3711 41.7067 84.7129 41.3604C85.0592 41.014 85.2324 40.5264 85.2324 39.8975V39.2617C84.7266 39.8451 84.0361 40.1367 83.1611 40.1367C82.2952 40.1367 81.5934 39.7881 81.0557 39.0908C80.5225 38.3936 80.2559 37.4434 80.2559 36.2402ZM81.5273 36.3838C81.5273 37.2178 81.6982 37.874 82.04 38.3525C82.3818 38.8265 82.8604 39.0635 83.4756 39.0635C84.2731 39.0635 84.8587 38.7012 85.2324 37.9766V34.5996C84.8451 33.8932 84.264 33.54 83.4893 33.54C82.874 33.54 82.3932 33.7793 82.0469 34.2578C81.7005 34.7363 81.5273 35.445 81.5273 36.3838ZM89.792 40H88.5273V32.6035H89.792V40ZM88.4248 30.6416C88.4248 30.4365 88.4863 30.2633 88.6094 30.1221C88.737 29.9808 88.9238 29.9102 89.1699 29.9102C89.416 29.9102 89.6029 29.9808 89.7305 30.1221C89.8581 30.2633 89.9219 30.4365 89.9219 30.6416C89.9219 30.8467 89.8581 31.0176 89.7305 31.1543C89.6029 31.291 89.416 31.3594 89.1699 31.3594C88.9238 31.3594 88.737 31.291 88.6094 31.1543C88.4863 31.0176 88.4248 30.8467 88.4248 30.6416ZM96.3887 40C96.3158 39.8542 96.2565 39.5944 96.2109 39.2207C95.623 39.8314 94.9212 40.1367 94.1055 40.1367C93.3763 40.1367 92.777 39.9316 92.3076 39.5215C91.8428 39.1068 91.6104 38.5827 91.6104 37.9492C91.6104 37.179 91.902 36.582 92.4854 36.1582C93.0732 35.7298 93.8981 35.5156 94.96 35.5156H96.1904V34.9346C96.1904 34.4925 96.0583 34.1416 95.7939 33.8818C95.5296 33.6175 95.14 33.4854 94.625 33.4854C94.1738 33.4854 93.7956 33.5993 93.4902 33.8271C93.1849 34.055 93.0322 34.3307 93.0322 34.6543H91.7607C91.7607 34.2852 91.8906 33.9297 92.1504 33.5879C92.4147 33.2415 92.7702 32.9681 93.2168 32.7676C93.668 32.5671 94.1624 32.4668 94.7002 32.4668C95.5524 32.4668 96.2201 32.681 96.7031 33.1094C97.1862 33.5332 97.4368 34.1188 97.4551 34.8662V38.2705C97.4551 38.9495 97.5417 39.4896 97.7148 39.8906V40H96.3887ZM94.29 39.0361C94.6865 39.0361 95.0625 38.9336 95.418 38.7285C95.7734 38.5234 96.0309 38.2568 96.1904 37.9287V36.4111H95.1992C93.6497 36.4111 92.875 36.8646 92.875 37.7715C92.875 38.168 93.0072 38.4779 93.2715 38.7012C93.5358 38.9245 93.8753 39.0361 94.29 39.0361ZM97.2637 29.7188C97.2637 30.2109 97.1224 30.6097 96.8398 30.915C96.5618 31.2204 96.2132 31.373 95.7939 31.373C95.6071 31.373 95.4453 31.3503 95.3086 31.3047C95.1719 31.2591 94.9919 31.1657 94.7686 31.0244C94.5498 30.8831 94.3903 30.7988 94.29 30.7715C94.1943 30.7396 94.0827 30.7236 93.9551 30.7236C93.7682 30.7236 93.6087 30.7965 93.4766 30.9424C93.3444 31.0837 93.2783 31.266 93.2783 31.4893L92.4307 31.4414C92.4307 30.9538 92.5674 30.5505 92.8408 30.2314C93.1188 29.9124 93.4697 29.7529 93.8936 29.7529C94.0531 29.7529 94.1966 29.7757 94.3242 29.8213C94.4518 29.8669 94.625 29.9557 94.8438 30.0879C95.0625 30.2201 95.2288 30.3066 95.3428 30.3477C95.4613 30.3887 95.5911 30.4092 95.7324 30.4092C95.9284 30.4092 96.0902 30.3317 96.2178 30.1768C96.3499 30.0218 96.416 29.8418 96.416 29.6367L97.2637 29.7188ZM105.542 36.2881H102.206V35.2559H105.542V36.2881ZM110.45 40V30.0469H113.26C114.126 30.0469 114.891 30.2383 115.557 30.6211C116.222 31.0039 116.735 31.5485 117.095 32.2549C117.459 32.9613 117.644 33.7725 117.648 34.6885V35.3242C117.648 36.263 117.466 37.0856 117.102 37.792C116.742 38.4984 116.224 39.0407 115.55 39.4189C114.88 39.7972 114.098 39.9909 113.205 40H110.45ZM111.763 31.127V38.9268H113.144C114.155 38.9268 114.941 38.6123 115.502 37.9834C116.067 37.3545 116.35 36.459 116.35 35.2969V34.7158C116.35 33.5856 116.083 32.7083 115.55 32.084C115.021 31.4551 114.269 31.1361 113.294 31.127H111.763ZM122.509 40.1367C121.506 40.1367 120.69 39.8086 120.062 39.1523C119.433 38.4915 119.118 37.6097 119.118 36.5068V36.2744C119.118 35.5407 119.257 34.8867 119.535 34.3125C119.818 33.7337 120.21 33.2826 120.711 32.959C121.217 32.6309 121.764 32.4668 122.352 32.4668C123.313 32.4668 124.061 32.7835 124.594 33.417C125.127 34.0505 125.394 34.9574 125.394 36.1377V36.6641H120.383C120.401 37.3932 120.613 37.9834 121.019 38.4346C121.429 38.8812 121.948 39.1045 122.577 39.1045C123.024 39.1045 123.402 39.0133 123.712 38.8311C124.022 38.6488 124.293 38.4072 124.525 38.1064L125.298 38.708C124.678 39.6605 123.748 40.1367 122.509 40.1367ZM122.352 33.5059C121.841 33.5059 121.413 33.6927 121.066 34.0664C120.72 34.4355 120.506 34.9551 120.424 35.625H124.129V35.5293C124.092 34.8867 123.919 34.39 123.609 34.0391C123.299 33.6836 122.88 33.5059 122.352 33.5059ZM128.06 32.6035L128.101 33.5332C128.666 32.8223 129.404 32.4668 130.315 32.4668C131.879 32.4668 132.667 33.3486 132.681 35.1123V40H131.416V35.1055C131.411 34.5723 131.288 34.1781 131.047 33.9229C130.81 33.6676 130.438 33.54 129.933 33.54C129.522 33.54 129.162 33.6494 128.853 33.8682C128.543 34.0869 128.301 34.374 128.128 34.7295V40H126.863V32.6035H128.06ZM136.304 30.8125V32.6035H137.685V33.5811H136.304V38.168C136.304 38.4642 136.365 38.6875 136.488 38.8379C136.611 38.9837 136.821 39.0566 137.117 39.0566C137.263 39.0566 137.464 39.0293 137.719 38.9746V40C137.386 40.0911 137.062 40.1367 136.748 40.1367C136.183 40.1367 135.757 39.9658 135.47 39.624C135.183 39.2822 135.039 38.7969 135.039 38.168V33.5811H133.692V32.6035H135.039V30.8125H136.304ZM140.542 40H139.277V32.6035H140.542V40ZM139.175 30.6416C139.175 30.4365 139.236 30.2633 139.359 30.1221C139.487 29.9808 139.674 29.9102 139.92 29.9102C140.166 29.9102 140.353 29.9808 140.48 30.1221C140.608 30.2633 140.672 30.4365 140.672 30.6416C140.672 30.8467 140.608 31.0176 140.48 31.1543C140.353 31.291 140.166 31.3594 139.92 31.3594C139.674 31.3594 139.487 31.291 139.359 31.1543C139.236 31.0176 139.175 30.8467 139.175 30.6416ZM146.879 38.0381C146.879 37.6963 146.749 37.432 146.489 37.2451C146.234 37.0537 145.785 36.8896 145.143 36.7529C144.505 36.6162 143.996 36.4521 143.618 36.2607C143.244 36.0693 142.966 35.8415 142.784 35.5771C142.606 35.3128 142.518 34.9984 142.518 34.6338C142.518 34.0277 142.773 33.515 143.283 33.0957C143.798 32.6764 144.454 32.4668 145.252 32.4668C146.09 32.4668 146.77 32.6833 147.289 33.1162C147.813 33.5492 148.075 34.1029 148.075 34.7773H146.804C146.804 34.431 146.656 34.1325 146.359 33.8818C146.068 33.6312 145.699 33.5059 145.252 33.5059C144.792 33.5059 144.432 33.6061 144.172 33.8066C143.912 34.0072 143.782 34.2692 143.782 34.5928C143.782 34.8981 143.903 35.1283 144.145 35.2832C144.386 35.4382 144.821 35.5863 145.45 35.7275C146.084 35.8688 146.596 36.0374 146.988 36.2334C147.38 36.4294 147.67 36.6663 147.856 36.9443C148.048 37.2178 148.144 37.5527 148.144 37.9492C148.144 38.61 147.879 39.141 147.351 39.542C146.822 39.9385 146.136 40.1367 145.293 40.1367C144.701 40.1367 144.176 40.0319 143.721 39.8223C143.265 39.6126 142.907 39.321 142.647 38.9473C142.392 38.569 142.265 38.1611 142.265 37.7236H143.529C143.552 38.1475 143.721 38.4847 144.035 38.7354C144.354 38.9814 144.773 39.1045 145.293 39.1045C145.771 39.1045 146.154 39.0088 146.441 38.8174C146.733 38.6214 146.879 38.3617 146.879 38.0381ZM151.507 30.8125V32.6035H152.888V33.5811H151.507V38.168C151.507 38.4642 151.568 38.6875 151.691 38.8379C151.814 38.9837 152.024 39.0566 152.32 39.0566C152.466 39.0566 152.667 39.0293 152.922 38.9746V40C152.589 40.0911 152.266 40.1367 151.951 40.1367C151.386 40.1367 150.96 39.9658 150.673 39.624C150.386 39.2822 150.242 38.7969 150.242 38.168V33.5811H148.896V32.6035H150.242V30.8125H151.507ZM158.938 40C158.865 39.8542 158.805 39.5944 158.76 39.2207C158.172 39.8314 157.47 40.1367 156.654 40.1367C155.925 40.1367 155.326 39.9316 154.856 39.5215C154.392 39.1068 154.159 38.5827 154.159 37.9492C154.159 37.179 154.451 36.582 155.034 36.1582C155.622 35.7298 156.447 35.5156 157.509 35.5156H158.739V34.9346C158.739 34.4925 158.607 34.1416 158.343 33.8818C158.078 33.6175 157.689 33.4854 157.174 33.4854C156.723 33.4854 156.344 33.5993 156.039 33.8271C155.734 34.055 155.581 34.3307 155.581 34.6543H154.31C154.31 34.2852 154.439 33.9297 154.699 33.5879C154.964 33.2415 155.319 32.9681 155.766 32.7676C156.217 32.5671 156.711 32.4668 157.249 32.4668C158.101 32.4668 158.769 32.681 159.252 33.1094C159.735 33.5332 159.986 34.1188 160.004 34.8662V38.2705C160.004 38.9495 160.09 39.4896 160.264 39.8906V40H158.938ZM156.839 39.0361C157.235 39.0361 157.611 38.9336 157.967 38.7285C158.322 38.5234 158.58 38.2568 158.739 37.9287V36.4111H157.748C156.199 36.4111 155.424 36.8646 155.424 37.7715C155.424 38.168 155.556 38.4779 155.82 38.7012C156.085 38.9245 156.424 39.0361 156.839 39.0361Z" fill="#DD3C3C"/>
</svg>
