<svg width="182" height="202" viewBox="0 0 182 202" fill="none" xmlns="http://www.w3.org/2000/svg">
<path d="M63.8894 0C29.5116 0 37.903 32.7535 37.903 32.7535C42.5048 51.9724 50.6255 62.2586 50.6255 62.2586C57.9342 82.5604 50.6255 128.036 50.6255 128.036C49.1811 139.135 56.5807 142.924 56.5807 142.924C56.5807 142.924 66.3257 149.962 74.1757 128.036C77.8585 117.75 80.04 102.05 81.4844 90.4104C83.8297 72.8155 91.1384 74.4397 91.1384 74.4397C91.1384 74.4397 98.7177 73.6276 101.516 90.4104C103.319 99.8845 106.568 120.186 108.824 128.036C116.674 149.962 126.419 142.924 126.419 142.924C126.419 142.924 133.637 138.593 132.374 128.036C132.374 128.036 125.066 82.5604 132.374 62.2586C132.374 62.2586 140.495 51.9724 145.097 32.7535C145.097 32.7535 153.488 0 119.111 0C119.111 0 98.507 0.356472 83.3466 3.82447C75.0071 0.128207 63.8894 0 63.8894 0Z" fill="#BC0000"/>
<path d="M43.1258 16.7384C44.1258 8.7384 51.1258 4.73841 61.6258 5.23841L62 6.50004C52.5 8.00004 49 11.5 49.5 16.5C49.5 16.5 49.2547 18.1227 48.5 18.5C47.5 19 46.5 19 46.5 19C46.5 19 45 19 44 18.5C43 18 43.1258 17.5 43.1258 16.7384Z" fill="white"/>
<path fill-rule="evenodd" clip-rule="evenodd" d="M112.393 17.1918C117.529 23.4917 116.963 32.5822 111.337 38.2353L114.287 41.8538C115.418 41.6704 116.612 42.0779 117.387 43.0279L127.325 55.2197C128.481 56.6373 128.265 58.7259 126.843 59.8849C125.422 61.0438 123.332 60.8342 122.177 59.4166L112.238 47.2248C111.464 46.2747 111.305 45.0233 111.713 43.9522L108.763 40.3338C102.092 44.7043 93.0742 43.427 87.9386 37.1271C82.4496 30.3937 83.4744 20.4726 90.2275 14.9676C96.9805 9.46267 106.905 10.4585 112.393 17.1918ZM107.419 36.0562C112.346 32.039 113.094 24.7993 109.089 19.8858C105.083 14.9722 97.8415 14.2456 92.9136 18.2627C87.9857 22.2799 87.2379 29.5196 91.2433 34.4331C95.2487 39.3467 102.491 40.0733 107.419 36.0562Z" fill="white"/>
<path d="M91.0526 28C90.5527 23.5 93.7193 19.1667 96.0527 18C92.4527 27.2 95.886 31.8333 99.0526 33L97.5526 36C92.5526 35.5 91.2735 29.9878 91.0526 28Z" fill="white"/>
<path d="M1.83984 175V157.938H5.90625C7.89844 157.938 9.44531 158.562 10.5469 159.812C11.6484 161.055 12.1992 162.805 12.1992 165.062V167.922C12.1992 170.18 11.6406 171.926 10.5234 173.16C9.40625 174.387 7.78516 175 5.66016 175H1.83984ZM3.98438 159.789V173.16H5.70703C7.21484 173.16 8.31641 172.73 9.01172 171.871C9.70703 171.004 10.0625 169.723 10.0781 168.027V165.004C10.0781 163.207 9.73047 161.891 9.03516 161.055C8.34766 160.211 7.30469 159.789 5.90625 159.789H3.98438ZM20.4961 164.266C20.207 164.211 19.8945 164.184 19.5586 164.184C18.4961 164.184 17.7539 164.766 17.332 165.93V175H15.2578V162.32H17.2734L17.3086 163.609C17.8633 162.594 18.6484 162.086 19.6641 162.086C19.9922 162.086 20.2656 162.141 20.4844 162.25L20.4961 164.266ZM28.6289 175C28.5039 174.727 28.4141 174.266 28.3594 173.617C27.625 174.695 26.6875 175.234 25.5469 175.234C24.3984 175.234 23.5 174.914 22.8516 174.273C22.2109 173.625 21.8906 172.715 21.8906 171.543C21.8906 170.254 22.3281 169.23 23.2031 168.473C24.0781 167.715 25.2773 167.328 26.8008 167.312H28.3242V165.965C28.3242 165.207 28.1562 164.668 27.8203 164.348C27.4844 164.027 26.9727 163.867 26.2852 163.867C25.6602 163.867 25.1523 164.055 24.7617 164.43C24.3711 164.797 24.1758 165.266 24.1758 165.836H22.1016C22.1016 165.188 22.293 164.57 22.6758 163.984C23.0586 163.391 23.5742 162.926 24.2227 162.59C24.8711 162.254 25.5938 162.086 26.3906 162.086C27.6875 162.086 28.6719 162.41 29.3438 163.059C30.0234 163.699 30.3711 164.637 30.3867 165.871V172.27C30.3945 173.246 30.5273 174.094 30.7852 174.812V175H28.6289ZM25.8633 173.348C26.3711 173.348 26.8555 173.207 27.3164 172.926C27.7773 172.645 28.1133 172.293 28.3242 171.871V168.848H27.1523C26.168 168.863 25.3906 169.086 24.8203 169.516C24.25 169.938 23.9648 170.531 23.9648 171.297C23.9648 172.016 24.1094 172.539 24.3984 172.867C24.6875 173.188 25.1758 173.348 25.8633 173.348ZM33.75 173.863C33.75 173.488 33.8594 173.176 34.0781 172.926C34.3047 172.676 34.6406 172.551 35.0859 172.551C35.5312 172.551 35.8672 172.676 36.0938 172.926C36.3281 173.176 36.4453 173.488 36.4453 173.863C36.4453 174.223 36.3281 174.523 36.0938 174.766C35.8672 175.008 35.5312 175.129 35.0859 175.129C34.6406 175.129 34.3047 175.008 34.0781 174.766C33.8594 174.523 33.75 174.223 33.75 173.863ZM48.5039 157.938L52.957 171.859L57.4102 157.938H60.1758V175H58.0312V168.355L58.2305 161.699L53.7656 175H52.125L47.6836 161.746L47.8828 168.355V175H45.7383V157.938H48.5039ZM67.0547 171.555L69.3633 162.32H71.5664L67.418 176.793C67.1055 177.879 66.6641 178.703 66.0938 179.266C65.5234 179.836 64.875 180.121 64.1484 180.121C63.8672 180.121 63.5078 180.059 63.0703 179.934V178.176L63.5273 178.223C64.1289 178.223 64.5977 178.078 64.9336 177.789C65.2773 177.508 65.5547 177.016 65.7656 176.312L66.1758 174.895L62.4492 162.32H64.7109L67.0547 171.555ZM75.832 175H73.7578V157H75.832V175ZM81.3398 175H79.2656V157H81.3398V175ZM89.1445 175.234C87.5664 175.234 86.3555 174.766 85.5117 173.828C84.668 172.883 84.2383 171.5 84.2227 169.68V168.145C84.2227 166.254 84.6328 164.773 85.4531 163.703C86.2812 162.625 87.4336 162.086 88.9102 162.086C90.3945 162.086 91.5039 162.559 92.2383 163.504C92.9727 164.449 93.3477 165.922 93.3633 167.922V169.281H86.2852V169.574C86.2852 170.934 86.5391 171.922 87.0469 172.539C87.5625 173.156 88.3008 173.465 89.2617 173.465C89.8711 173.465 90.4062 173.352 90.8672 173.125C91.3359 172.891 91.7734 172.523 92.1797 172.023L93.2578 173.336C92.3594 174.602 90.9883 175.234 89.1445 175.234ZM88.9102 163.867C88.0508 163.867 87.4141 164.164 87 164.758C86.5859 165.344 86.3516 166.258 86.2969 167.5H91.2891V167.219C91.2344 166.016 91.0156 165.156 90.6328 164.641C90.2578 164.125 89.6836 163.867 88.9102 163.867ZM97.8164 162.32L97.875 163.691C98.6797 162.621 99.707 162.086 100.957 162.086C103.199 162.086 104.336 163.582 104.367 166.574V175H102.305V166.668C102.305 165.676 102.137 164.973 101.801 164.559C101.473 164.137 100.977 163.926 100.312 163.926C99.7969 163.926 99.332 164.098 98.918 164.441C98.5117 164.785 98.1836 165.234 97.9336 165.789V175H95.8594V162.32H97.8164ZM114.012 175C113.887 174.727 113.797 174.266 113.742 173.617C113.008 174.695 112.07 175.234 110.93 175.234C109.781 175.234 108.883 174.914 108.234 174.273C107.594 173.625 107.273 172.715 107.273 171.543C107.273 170.254 107.711 169.23 108.586 168.473C109.461 167.715 110.66 167.328 112.184 167.312H113.707V165.965C113.707 165.207 113.539 164.668 113.203 164.348C112.867 164.027 112.355 163.867 111.668 163.867C111.043 163.867 110.535 164.055 110.145 164.43C109.754 164.797 109.559 165.266 109.559 165.836H107.484C107.484 165.188 107.676 164.57 108.059 163.984C108.441 163.391 108.957 162.926 109.605 162.59C110.254 162.254 110.977 162.086 111.773 162.086C113.07 162.086 114.055 162.41 114.727 163.059C115.406 163.699 115.754 164.637 115.77 165.871V172.27C115.777 173.246 115.91 174.094 116.168 174.812V175H114.012ZM111.246 173.348C111.754 173.348 112.238 173.207 112.699 172.926C113.16 172.645 113.496 172.293 113.707 171.871V168.848H112.535C111.551 168.863 110.773 169.086 110.203 169.516C109.633 169.938 109.348 170.531 109.348 171.297C109.348 172.016 109.492 172.539 109.781 172.867C110.07 173.188 110.559 173.348 111.246 173.348ZM129.586 164.477L132.797 157.938H135.316L130.875 166.398L135.41 175H132.867L129.586 168.344L126.293 175H123.75L128.309 166.398L123.844 157.938H126.352L129.586 164.477ZM144.246 175C144.121 174.727 144.031 174.266 143.977 173.617C143.242 174.695 142.305 175.234 141.164 175.234C140.016 175.234 139.117 174.914 138.469 174.273C137.828 173.625 137.508 172.715 137.508 171.543C137.508 170.254 137.945 169.23 138.82 168.473C139.695 167.715 140.895 167.328 142.418 167.312H143.941V165.965C143.941 165.207 143.773 164.668 143.438 164.348C143.102 164.027 142.59 163.867 141.902 163.867C141.277 163.867 140.77 164.055 140.379 164.43C139.988 164.797 139.793 165.266 139.793 165.836H137.719C137.719 165.188 137.91 164.57 138.293 163.984C138.676 163.391 139.191 162.926 139.84 162.59C140.488 162.254 141.211 162.086 142.008 162.086C143.305 162.086 144.289 162.41 144.961 163.059C145.641 163.699 145.988 164.637 146.004 165.871V172.27C146.012 173.246 146.145 174.094 146.402 174.812V175H144.246ZM141.48 173.348C141.988 173.348 142.473 173.207 142.934 172.926C143.395 172.645 143.73 172.293 143.941 171.871V168.848H142.77C141.785 168.863 141.008 169.086 140.438 169.516C139.867 169.938 139.582 170.531 139.582 171.297C139.582 172.016 139.727 172.539 140.016 172.867C140.305 173.188 140.793 173.348 141.48 173.348ZM152.637 171.848L155.039 162.32H157.148L153.387 175H151.84L148.031 162.32H150.141L152.637 171.848ZM161.543 175H159.469V162.32H161.543V175ZM161.707 158.957C161.707 159.309 161.609 159.602 161.414 159.836C161.219 160.07 160.922 160.188 160.523 160.188C160.133 160.188 159.84 160.07 159.645 159.836C159.449 159.602 159.352 159.309 159.352 158.957C159.352 158.605 159.449 158.309 159.645 158.066C159.84 157.824 160.133 157.703 160.523 157.703C160.914 157.703 161.207 157.828 161.402 158.078C161.605 158.32 161.707 158.613 161.707 158.957ZM169.348 175.234C167.77 175.234 166.559 174.766 165.715 173.828C164.871 172.883 164.441 171.5 164.426 169.68V168.145C164.426 166.254 164.836 164.773 165.656 163.703C166.484 162.625 167.637 162.086 169.113 162.086C170.598 162.086 171.707 162.559 172.441 163.504C173.176 164.449 173.551 165.922 173.566 167.922V169.281H166.488V169.574C166.488 170.934 166.742 171.922 167.25 172.539C167.766 173.156 168.504 173.465 169.465 173.465C170.074 173.465 170.609 173.352 171.07 173.125C171.539 172.891 171.977 172.523 172.383 172.023L173.461 173.336C172.562 174.602 171.191 175.234 169.348 175.234ZM169.113 163.867C168.254 163.867 167.617 164.164 167.203 164.758C166.789 165.344 166.555 166.258 166.5 167.5H171.492V167.219C171.438 166.016 171.219 165.156 170.836 164.641C170.461 164.125 169.887 163.867 169.113 163.867ZM181.301 164.266C181.012 164.211 180.699 164.184 180.363 164.184C179.301 164.184 178.559 164.766 178.137 165.93V175H176.062V162.32H178.078L178.113 163.609C178.668 162.594 179.453 162.086 180.469 162.086C180.797 162.086 181.07 162.141 181.289 162.25L181.301 164.266Z" fill="black"/>
<path d="M30.8984 193.939C30.7402 195.293 30.2393 196.339 29.3955 197.077C28.5576 197.81 27.4414 198.176 26.0469 198.176C24.5352 198.176 23.3223 197.634 22.4082 196.55C21.5 195.466 21.0459 194.016 21.0459 192.199V190.969C21.0459 189.779 21.2568 188.733 21.6787 187.831C22.1064 186.929 22.71 186.237 23.4893 185.757C24.2686 185.271 25.1709 185.027 26.1963 185.027C27.5557 185.027 28.6455 185.408 29.4658 186.17C30.2861 186.926 30.7637 187.975 30.8984 189.316H29.2021C29.0557 188.297 28.7363 187.559 28.2441 187.102C27.7578 186.645 27.0752 186.416 26.1963 186.416C25.1182 186.416 24.2715 186.814 23.6562 187.611C23.0469 188.408 22.7422 189.542 22.7422 191.013V192.252C22.7422 193.641 23.0322 194.745 23.6123 195.565C24.1924 196.386 25.0039 196.796 26.0469 196.796C26.9844 196.796 27.7021 196.585 28.2002 196.163C28.7041 195.735 29.0381 194.994 29.2021 193.939H30.8984ZM34.7217 198H33.0957V188.49H34.7217V198ZM32.9639 185.968C32.9639 185.704 33.043 185.481 33.2012 185.3C33.3652 185.118 33.6055 185.027 33.9219 185.027C34.2383 185.027 34.4785 185.118 34.6426 185.3C34.8066 185.481 34.8887 185.704 34.8887 185.968C34.8887 186.231 34.8066 186.451 34.6426 186.627C34.4785 186.803 34.2383 186.891 33.9219 186.891C33.6055 186.891 33.3652 186.803 33.2012 186.627C33.043 186.451 32.9639 186.231 32.9639 185.968ZM41.9287 189.949C41.6826 189.908 41.416 189.888 41.1289 189.888C40.0625 189.888 39.3389 190.342 38.958 191.25V198H37.332V188.49H38.9141L38.9404 189.589C39.4736 188.739 40.2295 188.314 41.208 188.314C41.5244 188.314 41.7646 188.355 41.9287 188.438V189.949ZM49.3027 197.06C48.6699 197.804 47.7412 198.176 46.5166 198.176C45.5029 198.176 44.7295 197.883 44.1963 197.297C43.6689 196.705 43.4023 195.832 43.3965 194.678V188.49H45.0225V194.634C45.0225 196.075 45.6084 196.796 46.7803 196.796C48.0225 196.796 48.8486 196.333 49.2588 195.407V188.49H50.8848V198H49.3379L49.3027 197.06ZM57.96 189.949C57.7139 189.908 57.4473 189.888 57.1602 189.888C56.0938 189.888 55.3701 190.342 54.9893 191.25V198H53.3633V188.49H54.9453L54.9717 189.589C55.5049 188.739 56.2607 188.314 57.2393 188.314C57.5557 188.314 57.7959 188.355 57.96 188.438V189.949ZM58.9004 193.166C58.9004 191.684 59.2432 190.506 59.9287 189.633C60.6143 188.754 61.5225 188.314 62.6533 188.314C63.8135 188.314 64.7188 188.725 65.3691 189.545L65.4482 188.49H66.9336V197.771C66.9336 199.002 66.5674 199.972 65.835 200.681C65.1084 201.39 64.1299 201.744 62.8994 201.744C62.2139 201.744 61.543 201.598 60.8867 201.305C60.2305 201.012 59.7295 200.61 59.3838 200.101L60.2275 199.125C60.9248 199.986 61.7773 200.417 62.7852 200.417C63.5762 200.417 64.1914 200.194 64.6309 199.749C65.0762 199.304 65.2988 198.677 65.2988 197.868V197.051C64.6484 197.801 63.7607 198.176 62.6357 198.176C61.5225 198.176 60.6201 197.728 59.9287 196.831C59.2432 195.935 58.9004 194.713 58.9004 193.166ZM60.5352 193.351C60.5352 194.423 60.7549 195.267 61.1943 195.882C61.6338 196.491 62.249 196.796 63.04 196.796C64.0654 196.796 64.8184 196.33 65.2988 195.398V191.057C64.8008 190.148 64.0537 189.694 63.0576 189.694C62.2666 189.694 61.6484 190.002 61.2031 190.617C60.7578 191.232 60.5352 192.144 60.5352 193.351ZM71.1611 198H69.5352V188.49H71.1611V198ZM69.4033 185.968C69.4033 185.704 69.4824 185.481 69.6406 185.3C69.8047 185.118 70.0449 185.027 70.3613 185.027C70.6777 185.027 70.918 185.118 71.082 185.3C71.2461 185.481 71.3281 185.704 71.3281 185.968C71.3281 186.231 71.2461 186.451 71.082 186.627C70.918 186.803 70.6777 186.891 70.3613 186.891C70.0449 186.891 69.8047 186.803 69.6406 186.627C69.4824 186.451 69.4033 186.231 69.4033 185.968ZM79.6426 198C79.5488 197.812 79.4727 197.479 79.4141 196.998C78.6582 197.783 77.7559 198.176 76.707 198.176C75.7695 198.176 74.999 197.912 74.3955 197.385C73.7979 196.852 73.499 196.178 73.499 195.363C73.499 194.373 73.874 193.605 74.624 193.061C75.3799 192.51 76.4404 192.234 77.8057 192.234H79.3877V191.487C79.3877 190.919 79.2178 190.468 78.8779 190.134C78.5381 189.794 78.0371 189.624 77.375 189.624C76.7949 189.624 76.3086 189.771 75.916 190.063C75.5234 190.356 75.3271 190.711 75.3271 191.127H73.6924C73.6924 190.652 73.8594 190.195 74.1934 189.756C74.5332 189.311 74.9902 188.959 75.5645 188.701C76.1445 188.443 76.7803 188.314 77.4717 188.314C78.5674 188.314 79.4258 188.59 80.0469 189.141C80.668 189.686 80.9902 190.438 81.0137 191.399V195.776C81.0137 196.649 81.125 197.344 81.3477 197.859V198H79.6426ZM76.9443 196.761C77.4541 196.761 77.9375 196.629 78.3945 196.365C78.8516 196.102 79.1826 195.759 79.3877 195.337V193.386H78.1133C76.1211 193.386 75.125 193.969 75.125 195.135C75.125 195.645 75.2949 196.043 75.6348 196.33C75.9746 196.617 76.4111 196.761 76.9443 196.761ZM80.7676 184.781C80.7676 185.414 80.5859 185.927 80.2227 186.319C79.8652 186.712 79.417 186.908 78.8779 186.908C78.6377 186.908 78.4297 186.879 78.2539 186.82C78.0781 186.762 77.8467 186.642 77.5596 186.46C77.2783 186.278 77.0732 186.17 76.9443 186.135C76.8213 186.094 76.6777 186.073 76.5137 186.073C76.2734 186.073 76.0684 186.167 75.8984 186.354C75.7285 186.536 75.6436 186.771 75.6436 187.058L74.5537 186.996C74.5537 186.369 74.7295 185.851 75.0811 185.44C75.4385 185.03 75.8896 184.825 76.4346 184.825C76.6396 184.825 76.8242 184.854 76.9883 184.913C77.1523 184.972 77.375 185.086 77.6562 185.256C77.9375 185.426 78.1514 185.537 78.2979 185.59C78.4502 185.643 78.6172 185.669 78.7988 185.669C79.0508 185.669 79.2588 185.569 79.4229 185.37C79.5928 185.171 79.6777 184.939 79.6777 184.676L80.7676 184.781ZM91.4111 193.228H87.1221V191.9H91.4111V193.228ZM97.7217 198V185.203H101.334C102.447 185.203 103.432 185.449 104.287 185.941C105.143 186.434 105.802 187.134 106.265 188.042C106.733 188.95 106.971 189.993 106.977 191.171V191.988C106.977 193.195 106.742 194.253 106.273 195.161C105.811 196.069 105.146 196.767 104.278 197.253C103.417 197.739 102.412 197.988 101.264 198H97.7217ZM99.4092 186.592V196.62H101.185C102.485 196.62 103.496 196.216 104.217 195.407C104.943 194.599 105.307 193.447 105.307 191.953V191.206C105.307 189.753 104.964 188.625 104.278 187.822C103.599 187.014 102.632 186.604 101.378 186.592H99.4092ZM113.226 198.176C111.937 198.176 110.888 197.754 110.079 196.91C109.271 196.061 108.866 194.927 108.866 193.509V193.21C108.866 192.267 109.045 191.426 109.402 190.688C109.766 189.943 110.27 189.363 110.914 188.947C111.564 188.525 112.268 188.314 113.023 188.314C114.26 188.314 115.221 188.722 115.906 189.536C116.592 190.351 116.935 191.517 116.935 193.034V193.711H110.492C110.516 194.648 110.788 195.407 111.31 195.987C111.837 196.562 112.505 196.849 113.313 196.849C113.888 196.849 114.374 196.731 114.772 196.497C115.171 196.263 115.52 195.952 115.818 195.565L116.812 196.339C116.015 197.563 114.819 198.176 113.226 198.176ZM113.023 189.65C112.367 189.65 111.816 189.891 111.371 190.371C110.926 190.846 110.65 191.514 110.545 192.375H115.309V192.252C115.262 191.426 115.039 190.787 114.641 190.336C114.242 189.879 113.703 189.65 113.023 189.65ZM120.362 188.49L120.415 189.686C121.142 188.771 122.091 188.314 123.263 188.314C125.272 188.314 126.286 189.448 126.304 191.716V198H124.678V191.707C124.672 191.021 124.514 190.515 124.203 190.187C123.898 189.858 123.421 189.694 122.771 189.694C122.243 189.694 121.78 189.835 121.382 190.116C120.983 190.397 120.673 190.767 120.45 191.224V198H118.824V188.49H120.362ZM130.962 186.188V188.49H132.737V189.747H130.962V195.645C130.962 196.025 131.041 196.312 131.199 196.506C131.357 196.693 131.627 196.787 132.008 196.787C132.195 196.787 132.453 196.752 132.781 196.682V198C132.354 198.117 131.938 198.176 131.533 198.176C130.807 198.176 130.259 197.956 129.89 197.517C129.521 197.077 129.336 196.453 129.336 195.645V189.747H127.604V188.49H129.336V186.188H130.962ZM136.411 198H134.785V188.49H136.411V198ZM134.653 185.968C134.653 185.704 134.732 185.481 134.891 185.3C135.055 185.118 135.295 185.027 135.611 185.027C135.928 185.027 136.168 185.118 136.332 185.3C136.496 185.481 136.578 185.704 136.578 185.968C136.578 186.231 136.496 186.451 136.332 186.627C136.168 186.803 135.928 186.891 135.611 186.891C135.295 186.891 135.055 186.803 134.891 186.627C134.732 186.451 134.653 186.231 134.653 185.968ZM144.559 195.478C144.559 195.038 144.392 194.698 144.058 194.458C143.729 194.212 143.152 194.001 142.326 193.825C141.506 193.649 140.853 193.438 140.366 193.192C139.886 192.946 139.528 192.653 139.294 192.313C139.065 191.974 138.951 191.569 138.951 191.101C138.951 190.321 139.279 189.662 139.936 189.123C140.598 188.584 141.441 188.314 142.467 188.314C143.545 188.314 144.418 188.593 145.086 189.149C145.76 189.706 146.097 190.418 146.097 191.285H144.462C144.462 190.84 144.271 190.456 143.891 190.134C143.516 189.812 143.041 189.65 142.467 189.65C141.875 189.65 141.412 189.779 141.078 190.037C140.744 190.295 140.577 190.632 140.577 191.048C140.577 191.44 140.732 191.736 141.043 191.936C141.354 192.135 141.913 192.325 142.722 192.507C143.536 192.688 144.195 192.905 144.699 193.157C145.203 193.409 145.575 193.714 145.815 194.071C146.062 194.423 146.185 194.854 146.185 195.363C146.185 196.213 145.845 196.896 145.165 197.411C144.485 197.921 143.604 198.176 142.52 198.176C141.758 198.176 141.084 198.041 140.498 197.771C139.912 197.502 139.452 197.127 139.118 196.646C138.79 196.16 138.626 195.636 138.626 195.073H140.252C140.281 195.618 140.498 196.052 140.902 196.374C141.312 196.69 141.852 196.849 142.52 196.849C143.135 196.849 143.627 196.726 143.996 196.479C144.371 196.228 144.559 195.894 144.559 195.478ZM150.509 186.188V188.49H152.284V189.747H150.509V195.645C150.509 196.025 150.588 196.312 150.746 196.506C150.904 196.693 151.174 196.787 151.555 196.787C151.742 196.787 152 196.752 152.328 196.682V198C151.9 198.117 151.484 198.176 151.08 198.176C150.354 198.176 149.806 197.956 149.437 197.517C149.067 197.077 148.883 196.453 148.883 195.645V189.747H147.151V188.49H148.883V186.188H150.509ZM160.062 198C159.969 197.812 159.893 197.479 159.834 196.998C159.078 197.783 158.176 198.176 157.127 198.176C156.189 198.176 155.419 197.912 154.815 197.385C154.218 196.852 153.919 196.178 153.919 195.363C153.919 194.373 154.294 193.605 155.044 193.061C155.8 192.51 156.86 192.234 158.226 192.234H159.808V191.487C159.808 190.919 159.638 190.468 159.298 190.134C158.958 189.794 158.457 189.624 157.795 189.624C157.215 189.624 156.729 189.771 156.336 190.063C155.943 190.356 155.747 190.711 155.747 191.127H154.112C154.112 190.652 154.279 190.195 154.613 189.756C154.953 189.311 155.41 188.959 155.984 188.701C156.564 188.443 157.2 188.314 157.892 188.314C158.987 188.314 159.846 188.59 160.467 189.141C161.088 189.686 161.41 190.438 161.434 191.399V195.776C161.434 196.649 161.545 197.344 161.768 197.859V198H160.062ZM157.364 196.761C157.874 196.761 158.357 196.629 158.814 196.365C159.271 196.102 159.603 195.759 159.808 195.337V193.386H158.533C156.541 193.386 155.545 193.969 155.545 195.135C155.545 195.645 155.715 196.043 156.055 196.33C156.395 196.617 156.831 196.761 157.364 196.761Z" fill="#DB0000"/>
</svg>
