<svg width="15" height="20" viewBox="0 0 15 20" fill="none" xmlns="http://www.w3.org/2000/svg">
<path d="M3.70038 0C-1.03052 0 0.124269 4.43536 0.124269 4.43536C0.75754 7.03793 1.87507 8.43086 1.87507 8.43086C2.88086 11.18 1.87507 17.3382 1.87507 17.3382C1.6763 18.8411 2.6946 19.3543 2.6946 19.3543C2.6946 19.3543 4.03564 20.3074 5.11593 17.3382C5.62273 15.9453 5.92294 13.8193 6.12171 12.2431C6.44445 9.86044 7.45023 10.0804 7.45023 10.0804C7.45023 10.0804 8.49327 9.9704 8.87829 12.2431C9.12654 13.526 9.57355 16.2752 9.88407 17.3382C10.9644 20.3074 12.3054 19.3543 12.3054 19.3543C12.3054 19.3543 13.2987 18.7678 13.1249 17.3382C13.1249 17.3382 12.1191 11.18 13.1249 8.43086C13.1249 8.43086 14.2425 7.03793 14.8757 4.43536C14.8757 4.43536 16.0305 0 11.2996 0C11.2996 0 8.46426 0.0482723 6.37797 0.517896C5.23034 0.0173613 3.70038 0 3.70038 0Z" fill="#DD2020"/>
</svg>
